<svg xmlns="http://www.w3.org/2000/svg" xmlns:xlink="http://www.w3.org/1999/xlink" width="390" zoomAndPan="magnify" viewBox="0 0 292.5 169.5" height="226" preserveAspectRatio="xMidYMid meet" version="1.0"><defs><g/><clipPath id="6f8e5fe8b8"><path d="M 224 23.078125 L 275 23.078125 L 275 75 L 224 75 Z M 224 23.078125 " clip-rule="nonzero"/></clipPath><clipPath id="df704663e4"><path d="M 223.824219 69 L 247 69 L 247 91.875 L 223.824219 91.875 Z M 223.824219 69 " clip-rule="nonzero"/></clipPath><clipPath id="d809850a20"><path d="M 225 23.078125 L 276 23.078125 L 276 75 L 225 75 Z M 225 23.078125 " clip-rule="nonzero"/></clipPath><clipPath id="4996bf97a4"><path d="M 225 68 L 248 68 L 248 91.875 L 225 91.875 Z M 225 68 " clip-rule="nonzero"/></clipPath><clipPath id="a4c5954fcc"><path d="M 260 54 L 291.820312 54 L 291.820312 87 L 260 87 Z M 260 54 " clip-rule="nonzero"/></clipPath><clipPath id="2bd5083b2e"><path d="M 28 92.066406 L 291.613281 92.066406 L 291.613281 106 L 28 106 Z M 28 92.066406 " clip-rule="nonzero"/></clipPath><clipPath id="762f77cf58"><path d="M 28 113 L 291.613281 113 L 291.613281 127 L 28 127 Z M 28 113 " clip-rule="nonzero"/></clipPath><clipPath id="700a627ebb"><path d="M 28 134 L 291.613281 134 L 291.613281 148 L 28 148 Z M 28 134 " clip-rule="nonzero"/></clipPath><clipPath id="f1206b0230"><path d="M 28 155 L 291.613281 155 L 291.613281 168.34375 L 28 168.34375 Z M 28 155 " clip-rule="nonzero"/></clipPath></defs><g clip-path="url(#6f8e5fe8b8)"><path fill="#332c2b" d="M 274.039062 49.136719 C 274.039062 49.136719 262.847656 48.234375 257.152344 46.96875 C 251.460938 45.703125 250.46875 38.113281 250.46875 38.113281 L 249.113281 23.65625 C 249.113281 23.65625 248.390625 31.425781 247.574219 38.292969 C 246.761719 45.160156 242.515625 46.335938 239.445312 47.511719 C 236.371094 48.683594 224.261719 48.683594 224.261719 49.136719 C 224.261719 49.589844 236.371094 49.589844 239.445312 50.765625 C 242.515625 51.9375 246.761719 53.113281 247.574219 59.980469 C 248.390625 66.847656 249.113281 74.617188 249.113281 74.617188 L 250.46875 60.160156 C 250.46875 60.160156 251.460938 52.570312 257.152344 51.304688 C 262.847656 50.039062 274.042969 49.136719 274.039062 49.136719 Z M 274.039062 49.136719 " fill-opacity="1" fill-rule="evenodd"/></g><g clip-path="url(#df704663e4)"><path fill="#332c2b" d="M 246.300781 80.554688 C 246.300781 80.554688 241.246094 80.148438 238.675781 79.578125 C 236.109375 79.003906 235.660156 75.578125 235.660156 75.578125 L 235.046875 69.050781 C 235.046875 69.050781 234.71875 72.5625 234.355469 75.660156 C 233.984375 78.761719 232.070312 79.289062 230.683594 79.820312 C 229.296875 80.351562 223.828125 80.351562 223.828125 80.554688 C 223.828125 80.761719 229.296875 80.761719 230.683594 81.289062 C 232.070312 81.820312 233.984375 82.351562 234.355469 85.449219 C 234.71875 88.550781 235.046875 92.058594 235.046875 92.058594 L 235.660156 85.53125 C 235.660156 85.53125 236.109375 82.105469 238.675781 81.535156 C 241.246094 80.964844 246.300781 80.554688 246.300781 80.554688 Z M 246.300781 80.554688 " fill-opacity="1" fill-rule="evenodd"/></g><path fill="#332c2b" d="M 290.246094 71.046875 C 290.246094 71.046875 283.148438 70.472656 279.535156 69.671875 C 275.925781 68.871094 275.292969 64.054688 275.292969 64.054688 L 274.433594 54.882812 C 274.433594 54.882812 273.976562 59.8125 273.460938 64.167969 C 272.945312 68.527344 270.25 69.269531 268.300781 70.015625 C 266.351562 70.761719 258.671875 70.761719 258.671875 71.046875 C 258.671875 71.335938 266.351562 71.335938 268.300781 72.078125 C 270.25 72.824219 272.945312 73.570312 273.460938 77.925781 C 273.976562 82.28125 274.433594 87.210938 274.433594 87.210938 L 275.292969 78.039062 C 275.292969 78.039062 275.925781 73.226562 279.535156 72.421875 C 283.148438 71.621094 290.25 71.046875 290.246094 71.046875 Z M 290.246094 71.046875 " fill-opacity="1" fill-rule="evenodd"/><g clip-path="url(#d809850a20)"><path fill="#ffbd59" d="M 275.398438 48.558594 C 275.398438 48.558594 264.203125 47.65625 258.511719 46.390625 C 252.820312 45.125 251.824219 37.535156 251.824219 37.535156 L 250.46875 23.078125 C 250.46875 23.078125 249.746094 30.847656 248.933594 37.714844 C 248.121094 44.582031 243.875 45.757812 240.800781 46.933594 C 237.730469 48.105469 225.621094 48.105469 225.621094 48.558594 C 225.621094 49.011719 237.730469 49.011719 240.800781 50.183594 C 243.875 51.359375 248.121094 52.535156 248.933594 59.402344 C 249.746094 66.269531 250.46875 74.039062 250.46875 74.039062 L 251.824219 59.582031 C 251.824219 59.582031 252.820312 51.992188 258.511719 50.726562 C 264.203125 49.460938 275.398438 48.558594 275.398438 48.558594 Z M 275.398438 48.558594 " fill-opacity="1" fill-rule="evenodd"/></g><g clip-path="url(#4996bf97a4)"><path fill="#fff0c7" d="M 247.65625 79.976562 C 247.65625 79.976562 242.605469 79.570312 240.035156 79 C 237.464844 78.425781 237.015625 75 237.015625 75 L 236.402344 68.472656 C 236.402344 68.472656 236.078125 71.980469 235.710938 75.082031 C 235.34375 78.183594 233.425781 78.710938 232.039062 79.242188 C 230.652344 79.773438 225.1875 79.773438 225.1875 79.976562 C 225.1875 80.179688 230.652344 80.179688 232.039062 80.710938 C 233.425781 81.242188 235.34375 81.773438 235.710938 84.871094 C 236.078125 87.972656 236.402344 91.480469 236.402344 91.480469 L 237.015625 84.953125 C 237.015625 84.953125 237.464844 81.527344 240.035156 80.957031 C 242.605469 80.386719 247.65625 79.976562 247.65625 79.976562 Z M 247.65625 79.976562 " fill-opacity="1" fill-rule="evenodd"/></g><g clip-path="url(#a4c5954fcc)"><path fill="#fff0c7" d="M 291.605469 70.46875 C 291.605469 70.46875 284.503906 69.894531 280.894531 69.09375 C 277.28125 68.292969 276.652344 63.476562 276.652344 63.476562 L 275.792969 54.304688 C 275.792969 54.304688 275.332031 59.234375 274.816406 63.589844 C 274.300781 67.949219 271.609375 68.691406 269.660156 69.4375 C 267.710938 70.183594 260.03125 70.183594 260.03125 70.46875 C 260.03125 70.757812 267.710938 70.757812 269.660156 71.5 C 271.609375 72.246094 274.300781 72.992188 274.816406 77.347656 C 275.332031 81.703125 275.792969 86.632812 275.792969 86.632812 L 276.652344 77.460938 C 276.652344 77.460938 277.28125 72.648438 280.894531 71.84375 C 284.503906 71.042969 291.605469 70.46875 291.605469 70.46875 Z M 291.605469 70.46875 " fill-opacity="1" fill-rule="evenodd"/></g><g clip-path="url(#2bd5083b2e)"><path fill="#ffbd59" d="M 291.1875 92.066406 L 291.1875 105.210938 L 28.289062 105.210938 L 28.289062 92.066406 Z M 291.1875 92.066406 " fill-opacity="1" fill-rule="nonzero"/></g><g clip-path="url(#762f77cf58)"><path fill="#ffbd59" d="M 291.1875 113.113281 L 291.1875 126.261719 L 28.289062 126.261719 L 28.289062 113.113281 Z M 291.1875 113.113281 " fill-opacity="1" fill-rule="nonzero"/></g><g clip-path="url(#700a627ebb)"><path fill="#fff0c7" d="M 291.1875 134.132812 L 291.1875 147.277344 L 28.289062 147.277344 L 28.289062 134.132812 Z M 291.1875 134.132812 " fill-opacity="1" fill-rule="nonzero"/></g><g clip-path="url(#f1206b0230)"><path fill="#fff0c7" d="M 291.1875 155.171875 L 291.1875 168.320312 L 28.289062 168.320312 L 28.289062 155.171875 Z M 291.1875 155.171875 " fill-opacity="1" fill-rule="nonzero"/></g><g fill="#ffbd59" fill-opacity="1"><g transform="translate(27.865737, 86.787181)"><g><path d="M 14.40625 0.46875 C 9.757812 0.46875 6.40625 -0.675781 4.34375 -2.96875 C 2.28125 -5.269531 1.25 -8.984375 1.25 -14.109375 L 1.25 -19.109375 L 11.3125 -19.109375 L 11.3125 -12.734375 C 11.3125 -10.191406 12.125 -8.921875 13.75 -8.921875 C 14.664062 -8.921875 15.300781 -9.1875 15.65625 -9.71875 C 16.007812 -10.257812 16.1875 -11.164062 16.1875 -12.4375 C 16.1875 -14.101562 15.988281 -15.484375 15.59375 -16.578125 C 15.195312 -17.671875 14.691406 -18.582031 14.078125 -19.3125 C 13.460938 -20.050781 12.363281 -21.191406 10.78125 -22.734375 L 6.375 -27.140625 C 2.957031 -30.472656 1.25 -34.164062 1.25 -38.21875 C 1.25 -42.582031 2.25 -45.90625 4.25 -48.1875 C 6.257812 -50.46875 9.1875 -51.609375 13.03125 -51.609375 C 17.632812 -51.609375 20.945312 -50.390625 22.96875 -47.953125 C 25 -45.515625 26.015625 -41.695312 26.015625 -36.5 L 15.59375 -36.5 L 15.53125 -40 C 15.53125 -40.675781 15.34375 -41.210938 14.96875 -41.609375 C 14.59375 -42.003906 14.066406 -42.203125 13.390625 -42.203125 C 12.597656 -42.203125 12.003906 -41.984375 11.609375 -41.546875 C 11.210938 -41.109375 11.015625 -40.515625 11.015625 -39.765625 C 11.015625 -38.097656 11.96875 -36.375 13.875 -34.59375 L 19.828125 -28.875 C 21.210938 -27.519531 22.359375 -26.238281 23.265625 -25.03125 C 24.179688 -23.820312 24.914062 -22.394531 25.46875 -20.75 C 26.03125 -19.101562 26.3125 -17.144531 26.3125 -14.875 C 26.3125 -9.84375 25.390625 -6.023438 23.546875 -3.421875 C 21.703125 -0.828125 18.65625 0.46875 14.40625 0.46875 Z M 14.40625 0.46875 "/></g></g></g><g fill="#ffbd59" fill-opacity="1"><g transform="translate(55.307055, 86.787181)"><g><path d="M 6.671875 0 L 6.671875 -41.3125 L 0.59375 -41.3125 L 0.59375 -51.140625 L 22.984375 -51.140625 L 22.984375 -41.3125 L 16.90625 -41.3125 L 16.90625 0 Z M 6.671875 0 "/></g></g></g><g fill="#ffbd59" fill-opacity="1"><g transform="translate(78.879206, 86.787181)"><g><path d="M 14.109375 0.46875 C 9.898438 0.46875 6.773438 -0.71875 4.734375 -3.09375 C 2.691406 -5.476562 1.671875 -9.007812 1.671875 -13.6875 L 1.671875 -51.140625 L 11.609375 -51.140625 L 11.609375 -14.109375 C 11.609375 -12.484375 11.765625 -11.210938 12.078125 -10.296875 C 12.398438 -9.378906 13.078125 -8.921875 14.109375 -8.921875 C 15.140625 -8.921875 15.8125 -9.367188 16.125 -10.265625 C 16.445312 -11.160156 16.609375 -12.441406 16.609375 -14.109375 L 16.609375 -51.140625 L 26.546875 -51.140625 L 26.546875 -13.6875 C 26.546875 -9.007812 25.523438 -5.476562 23.484375 -3.09375 C 21.441406 -0.71875 18.316406 0.46875 14.109375 0.46875 Z M 14.109375 0.46875 "/></g></g></g><g fill="#ffbd59" fill-opacity="1"><g transform="translate(107.094358, 86.787181)"><g><path d="M 2.265625 -51.140625 L 16.375 -51.140625 C 20.019531 -51.140625 22.753906 -50.125 24.578125 -48.09375 C 26.410156 -46.070312 27.347656 -43.078125 27.390625 -39.109375 L 27.5 -15.1875 C 27.539062 -10.144531 26.664062 -6.351562 24.875 -3.8125 C 23.09375 -1.269531 20.140625 0 16.015625 0 L 2.265625 0 Z M 14.34375 -9.046875 C 16.207031 -9.046875 17.140625 -9.957031 17.140625 -11.78125 L 17.140625 -38.15625 C 17.140625 -39.3125 17.050781 -40.175781 16.875 -40.75 C 16.695312 -41.320312 16.367188 -41.707031 15.890625 -41.90625 C 15.421875 -42.101562 14.6875 -42.203125 13.6875 -42.203125 L 12.5625 -42.203125 L 12.5625 -9.046875 Z M 14.34375 -9.046875 "/></g></g></g><g fill="#ffbd59" fill-opacity="1"><g transform="translate(136.440489, 86.787181)"><g><path d="M 1.78125 0 L 1.78125 -51.140625 L 11.671875 -51.140625 L 11.671875 0 Z M 1.78125 0 "/></g></g></g><g fill="#ffbd59" fill-opacity="1"><g transform="translate(149.952804, 86.787181)"><g><path d="M 14.109375 0.46875 C 9.898438 0.46875 6.773438 -0.71875 4.734375 -3.09375 C 2.691406 -5.476562 1.671875 -9.007812 1.671875 -13.6875 L 1.671875 -51.140625 L 11.609375 -51.140625 L 11.609375 -14.109375 C 11.609375 -12.484375 11.765625 -11.210938 12.078125 -10.296875 C 12.398438 -9.378906 13.078125 -8.921875 14.109375 -8.921875 C 15.140625 -8.921875 15.8125 -9.367188 16.125 -10.265625 C 16.445312 -11.160156 16.609375 -12.441406 16.609375 -14.109375 L 16.609375 -51.140625 L 26.546875 -51.140625 L 26.546875 -13.6875 C 26.546875 -9.007812 25.523438 -5.476562 23.484375 -3.09375 C 21.441406 -0.71875 18.316406 0.46875 14.109375 0.46875 Z M 14.109375 0.46875 "/></g></g></g><g fill="#ffbd59" fill-opacity="1"><g transform="translate(178.167956, 86.787181)"><g><path d="M 2.265625 0 L 2.265625 -51.140625 L 17.859375 -51.140625 L 22.140625 -19.9375 L 26.4375 -51.140625 L 42.140625 -51.140625 L 42.140625 0 L 32.796875 0 L 32.796875 -36.84375 L 26.90625 0 L 17.734375 0 L 11.484375 -36.84375 L 11.484375 0 Z M 2.265625 0 "/></g></g></g></svg>